<?xml version="1.0" encoding="UTF-8"?>
<svg width="146px" height="60px" viewBox="0 0 146 60" version="1.1" xmlns="http://www.w3.org/2000/svg" xmlns:xlink="http://www.w3.org/1999/xlink">
    <!-- Generator: Sketch 52.6 (67491) - http://www.bohemiancoding.com/sketch -->
    <title>facebook-logo</title>
    <desc>Created with Sketch.</desc>
    <g id="Page-1" stroke="none" stroke-width="1" fill="none" fill-rule="evenodd">
        <g id="Lead-Feeds-Page---Medicare" transform="translate(-1194.000000, -4685.000000)">
            <g id="facebook-logo" transform="translate(1194.000000, 4685.000000)">
                <path d="M146,57.1289538 C146,58.7104623 144.710333,60 143.128667,60 L2.87133333,60 C1.28966667,60 0,58.7104623 0,57.1289538 L0,2.87104623 C0,1.28953771 1.28966667,0 2.87133333,0 L143.128667,0 C144.710333,0 146,1.28953771 146,2.87104623 L146,57.1289538 Z" id="Path" fill="#3B5998"></path>
                <polygon id="Path" fill="#FFFFFF" points="66.392435 14 68 14 68 27 66.5106383 27 66.5106383 17.0300752 63.7446809 23.5789474 62.2553191 23.5789474 59.4893617 17.0300752 59.4893617 27 58 27 58 14 59.5839243 14 62.9881797 21.9906015"></polygon>
                <path d="M77,26.8062954 L75.6918033,26.8062954 L75.6,26.0072639 C75.095082,26.4430993 73.8327869,27 72.7081967,27 C70.757377,27 70,25.7893462 70,23.9975787 C70,22.1089588 70.895082,21.1162228 72.8229508,21.1162228 C73.9704918,21.1162228 74.9803279,21.4309927 75.4622951,21.6489104 L75.4622951,20.1719128 C75.4622951,18.937046 75.095082,18.4043584 73.7409836,18.4043584 C72.9377049,18.4043584 72.1344262,18.5254237 71.3081967,18.7675545 L71.0786885,17.4358354 C71.8590164,17.1694915 72.9606557,17 73.9016393,17 C76.0131148,17 77,17.968523 77,20.0750605 L77,26.8062954 Z M75.4622951,22.7627119 C74.957377,22.5932203 73.947541,22.3510896 73.0295082,22.3510896 C71.7901639,22.3510896 71.4918033,22.9806295 71.4918033,24.0460048 C71.4918033,25.2324455 71.8590164,25.7893462 72.9147541,25.7893462 C74.0163934,25.7893462 74.9344262,25.3535109 75.4393443,24.9661017 L75.4393443,22.7627119 L75.4622951,22.7627119 Z" id="Shape" fill="#FFFFFF" fill-rule="nonzero"></path>
                <path d="M84,18.5384615 C83.0575916,18.7617866 82.1151832,19.133995 81.4031414,19.5806452 L81.4031414,27 L80,27 L80,17.1488834 L81.1518325,17.1488834 L81.2984293,18.2903226 C81.8010471,17.6947891 82.7225131,17.1240695 83.8115183,17 L84,18.5384615 Z" id="Path" fill="#FFFFFF"></path>
                <polygon id="Path" fill="#FFFFFF" points="86 27 86 13 87.6172414 13 87.6172414 21.712766 90.9482759 17.1702128 92.8551724 17.1702128 89.1862069 22.035461 93 27 91.0931034 27 87.6172414 22.3333333 87.6172414 27"></polygon>
                <path d="M95.7179487,22.7142857 C95.8205128,24.748184 96.3589744,25.716707 98.4358974,25.716707 C99.5128205,25.716707 100.641026,25.4745763 101.435897,25.1840194 L101.692308,26.4188862 C100.846154,26.7578692 99.5128205,27 98.4102564,27 C94.7435897,27 94,24.6271186 94,21.9394673 C94,19.1791768 94.974359,17 98.0769231,17 C100.846154,17 102,18.8401937 102,21.1404358 L102,22.7142857 L95.7179487,22.7142857 Z M95.7179487,21.4309927 L100.333333,21.4309927 L100.333333,21.0920097 C100.333333,19.3002421 99.7435897,18.2348668 98.0512821,18.2348668 C96.1538462,18.2106538 95.7435897,19.5181598 95.7179487,21.4309927 Z" id="Shape" fill="#FFFFFF" fill-rule="nonzero"></path>
                <path d="M109.975904,26.6947162 C109.566265,26.8473581 108.626506,27 108,27 C106.361446,27 105.662651,26.0332681 105.662651,24.481409 L105.662651,18.0958904 L104,18.0958904 L104,16.7221135 L105.662651,16.7221135 L105.662651,14.2544031 L107.277108,14 L107.277108,16.6966732 L110,16.6966732 L109.855422,18.0704501 L107.277108,18.0704501 L107.277108,24.3796477 C107.277108,25.3209393 107.493976,25.6007828 108.385542,25.6007828 C108.771084,25.6007828 109.325301,25.5244618 109.831325,25.3972603 L109.975904,26.6947162 Z" id="Path" fill="#FFFFFF"></path>
                <path d="M112,14 C112.577778,14 113,14.4426523 113,15.0483871 C113,15.6541219 112.6,16.0967742 112,16.0967742 C111.422222,16.0967742 111,15.6541219 111,15.0483871 C111.022222,14.4426523 111.422222,14 112,14 Z M111.266667,17.7508961 L112.755556,17.7508961 L112.755556,27 L111.266667,27 L111.266667,17.7508961 Z" id="Shape" fill="#FFFFFF" fill-rule="nonzero"></path>
                <path d="M121.418605,27 L121.418605,19.8641975 C121.418605,18.9753086 121.069767,18.5308642 120.162791,18.5308642 C119.186047,18.5308642 118.232558,18.8765432 117.55814,19.1728395 L117.55814,27 L116,27 L116,17.1975309 L117.255814,17.1975309 L117.395349,18.0617284 C118.139535,17.5185185 119.302326,17 120.55814,17 C122.139535,17 123,17.9382716 123,19.691358 L123,27 L121.418605,27 Z" id="Path" fill="#FFFFFF"></path>
                <path d="M130.111748,18.1870504 L133,18.1870504 L133,19.2625899 L131.7851,19.4964029 C132.014327,19.9172662 132.12894,20.4784173 132.12894,21.0629496 C132.12894,22.9802158 130.82235,24.1258993 128.73639,24.1258993 C128.39255,24.1258993 128.048711,24.102518 127.773639,24.0323741 C127.567335,24.2194245 127.361032,24.4766187 127.361032,24.897482 C127.361032,25.3417266 127.590258,25.5521583 128.186246,25.5521583 L130.249284,25.5521583 C131.853868,25.5521583 132.839542,26.5809353 132.839542,28.0305755 C132.839542,30.0179856 131.120344,31 128.667622,31 C126.283668,31 125,30.2517986 125,28.4982014 C125,27.3758993 125.733524,26.8615108 126.444126,26.5107914 C126.054441,26.2302158 125.848138,25.8093525 125.848138,25.2715827 C125.848138,24.4298561 126.421203,24.0089928 126.902579,23.7284173 C125.916905,23.2374101 125.34384,22.3021583 125.34384,21.0629496 C125.34384,19.0755396 126.467049,18 128.713467,18 C129.240688,18 129.69914,18.0701439 130.111748,18.1870504 M127.223496,26.8381295 C126.810888,27.1888489 126.444126,27.6330935 126.444126,28.381295 C126.444126,29.4568345 127.338109,29.8543165 128.713467,29.8543165 C130.318052,29.8543165 131.303725,29.4334532 131.303725,28.1942446 C131.303725,27.4928058 130.91404,26.9082734 129.928367,26.9082734 L127.95702,26.9082734 C127.681948,26.9082734 127.338109,26.8848921 127.223496,26.8381295 M128.73639,19.1223022 C127.429799,19.1223022 126.810888,19.6600719 126.810888,21.0629496 C126.810888,22.4658273 127.52149,23.0035971 128.73639,23.0035971 C129.951289,23.0035971 130.684814,22.3956835 130.684814,21.0629496 C130.684814,19.7068345 129.997135,19.1223022 128.73639,19.1223022" id="Shape" fill="#FFFFFF" fill-rule="nonzero"></path>
                <path d="M58.6880734,42.1707317 L58.6880734,47 L57,47 L57,34 L60.8899083,34 C63.8990826,34 65,35.7073171 65,38.0731707 C65,40.4390244 63.8990826,42.1463415 60.8899083,42.1463415 L58.6880734,42.1463415 L58.6880734,42.1707317 Z M58.6880734,40.804878 L60.8409786,40.804878 C62.7981651,40.804878 63.3363914,39.6829268 63.3363914,38.097561 C63.3363914,36.4878049 62.7981651,35.3902439 60.8409786,35.3902439 L58.6880734,35.3902439 L58.6880734,40.804878 Z" id="Shape" fill="#FFFFFF" fill-rule="nonzero"></path>
                <path d="M73,46.8062954 L71.6918033,46.8062954 L71.6,46.0072639 C71.095082,46.4430993 69.8327869,47 68.7081967,47 C66.757377,47 66,45.7893462 66,43.9975787 C66,42.1089588 66.895082,41.1162228 68.8229508,41.1162228 C69.947541,41.1162228 70.9803279,41.4309927 71.4622951,41.6489104 L71.4622951,40.1719128 C71.4622951,38.937046 71.095082,38.4043584 69.7409836,38.4043584 C68.9377049,38.4043584 68.1344262,38.5254237 67.3081967,38.7675545 L67.0786885,37.4358354 C67.8590164,37.1694915 68.9606557,37 69.9016393,37 C72.0131148,37 73,37.968523 73,40.0750605 L73,46.8062954 Z M71.4622951,42.7627119 C70.957377,42.5932203 69.947541,42.3510896 69.0295082,42.3510896 C67.7901639,42.3510896 67.4918033,42.9806295 67.4918033,44.0460048 C67.4918033,45.2324455 67.8590164,45.7893462 68.9147541,45.7893462 C70.0163934,45.7893462 70.9344262,45.3535109 71.4393443,44.9661017 L71.4393443,42.7627119 L71.4622951,42.7627119 Z" id="Shape" fill="#FFFFFF" fill-rule="nonzero"></path>
                <path d="M80,38.5384615 C79.0575916,38.7617866 78.1151832,39.133995 77.4031414,39.5806452 L77.4031414,47 L76,47 L76,37.1488834 L77.1518325,37.1488834 L77.2984293,38.2903226 C77.8010471,37.6947891 78.7225131,37.1240695 79.8115183,37 L80,38.5384615 Z" id="Path" fill="#FFFFFF"></path>
                <path d="M87.9518072,46.6947162 C87.5421687,46.8473581 86.6024096,47 85.9759036,47 C84.3373494,47 83.6385542,46.0332681 83.6385542,44.481409 L83.6385542,38.0958904 L82,38.0958904 L82,36.7221135 L83.6626506,36.7221135 L83.6626506,34.2544031 L85.2771084,34 L85.2771084,36.6966732 L88,36.6966732 L87.8554217,38.0704501 L85.2771084,38.0704501 L85.2771084,44.3796477 C85.2771084,45.3209393 85.4939759,45.6007828 86.3855422,45.6007828 C86.7710843,45.6007828 87.3253012,45.5244618 87.8313253,45.3972603 L87.9518072,46.6947162 Z" id="Path" fill="#FFFFFF"></path>
                <path d="M94.4186047,47 L94.4186047,39.8641975 C94.4186047,38.9753086 94.0697674,38.5308642 93.1627907,38.5308642 C92.1860465,38.5308642 91.2325581,38.8765432 90.5581395,39.1728395 L90.5581395,47 L89,47 L89,37.1975309 L90.255814,37.1975309 L90.3953488,38.0617284 C91.1395349,37.5185185 92.3023256,37 93.5581395,37 C95.1395349,37 96,37.9382716 96,39.691358 L96,47 L94.4186047,47 Z" id="Path" fill="#FFFFFF"></path>
                <path d="M100.717949,42.7142857 C100.820513,44.748184 101.358974,45.716707 103.435897,45.716707 C104.512821,45.716707 105.641026,45.4745763 106.435897,45.1840194 L106.692308,46.4188862 C105.846154,46.7578692 104.512821,47 103.410256,47 C99.7435897,47 99,44.6271186 99,41.9394673 C99,39.1791768 99.974359,37 103.076923,37 C105.846154,37 107,38.8401937 107,41.1404358 L107,42.7142857 L100.717949,42.7142857 Z M100.717949,41.4309927 L105.333333,41.4309927 L105.333333,41.0920097 C105.333333,39.3002421 104.74359,38.2348668 103.051282,38.2348668 C101.128205,38.2106538 100.717949,39.5181598 100.717949,41.4309927 Z" id="Shape" fill="#FFFFFF" fill-rule="nonzero"></path>
                <path d="M113,38.5384615 C112.057592,38.7617866 111.115183,39.133995 110.403141,39.5806452 L110.403141,47 L109,47 L109,37.1488834 L110.151832,37.1488834 L110.298429,38.2903226 C110.801047,37.6947891 111.722513,37.1240695 112.811518,37 L113,38.5384615 Z" id="Path" fill="#FFFFFF"></path>
                <path d="M46.0354707,12 L13.9890859,12 C12.8840382,12 12,12.8834356 12,13.9877301 L12,46.0122699 C12,47.1165644 12.8840382,48 13.9890859,48 L31.2278308,48 L31.2278308,34.0613497 L26.5375171,34.0613497 L26.5375171,28.6380368 L31.2278308,28.6380368 L31.2278308,24.6380368 C31.2278308,20 34.0763984,17.4478528 38.2264666,17.4478528 C40.2155525,17.4478528 41.9345157,17.595092 42.425648,17.6687117 L42.425648,22.5276074 L39.5525239,22.5276074 C37.2933151,22.5276074 36.851296,23.607362 36.851296,25.1779141 L36.851296,28.6380368 L42.2291951,28.6380368 L41.5170532,34.0613497 L36.8267394,34.0613497 L36.8267394,48 L46.0109141,48 C47.1159618,48 48,47.1165644 48,46.0122699 L48,13.9877301 C48,12.8834356 47.1159618,12 46.0354707,12" id="Path" fill="#FFFFFF"></path>
            </g>
        </g>
    </g>
</svg>