<?xml version="1.0" encoding="utf-8"?>
<!-- Generator: Adobe Illustrator 16.0.0, SVG Export Plug-In . SVG Version: 6.00 Build 0)  -->
<!DOCTYPE svg PUBLIC "-//W3C//DTD SVG 1.1//EN" "http://www.w3.org/Graphics/SVG/1.1/DTD/svg11.dtd">
<svg version="1.1" id="Layer_1" xmlns="http://www.w3.org/2000/svg" xmlns:xlink="http://www.w3.org/1999/xlink" x="0px" y="0px"
	 width="110px" height="53px" viewBox="0 0 110 53" enable-background="new 0 0 110 53" xml:space="preserve">
<title>LogoNew/Colors</title>
<desc>Created with Sketch.</desc>
<g>
	<path id="Path" fill="#4AC9E3" d="M105.49,37.176c-6.736,0-12.197-5.428-12.197-12.123s5.461-12.122,12.197-12.122v1.893
		c-5.685,0-10.293,4.58-10.293,10.229c0,5.65,4.608,10.23,10.293,10.23V37.176L105.49,37.176z"/>
	<path id="Path_1_" fill="#00B5DF" d="M105.545,41.694c-9.135,0-16.539-7.36-16.539-16.438c0-9.079,7.404-16.439,16.539-16.439
		v1.893c-8.05,0-14.576,6.486-14.576,14.487s6.526,14.487,14.576,14.487V41.694L105.545,41.694z"/>
	<path id="Path_2_" fill="#008BCD" d="M105.541,46.096c-11.5,0-20.823-9.267-20.823-20.697c0-11.43,9.323-20.696,20.823-20.696
		v1.893c-6.738,0-12.964,3.573-16.333,9.373s-3.369,12.945,0,18.745s9.595,9.372,16.333,9.372V46.096L105.541,46.096z"/>
	<path id="Path_3_" fill="#0055AD" d="M105.492,49.908c-13.866,0-25.107-11.173-25.107-24.955S91.626,0,105.492,0v1.893
		c-12.782,0-23.145,10.298-23.145,23.002c0,12.705,10.361,23.004,23.145,23.004V49.908L105.492,49.908z"/>
	<path id="Path_4_" fill="#D0DF00" d="M70.08,37.334v-1.893c5.686,0,10.293-4.58,10.293-10.229s-4.607-10.23-10.293-10.23V13.09
		c6.736,0,12.197,5.428,12.197,12.122S76.816,37.334,70.08,37.334z"/>
	<path id="Path_5_" fill="#8BC400" d="M70.08,41.606v-2.011c8.051,0,14.577-6.486,14.577-14.488c0-8-6.526-14.487-14.577-14.487
		V8.729c9.135,0,16.541,7.36,16.541,16.439S79.215,41.606,70.08,41.606z"/>
	<path id="Path_6_" fill="#43B02A" d="M70.08,45.866v-2.011c6.738,0,12.965-3.573,16.334-9.373c3.369-5.799,3.369-12.945,0-18.745
		c-3.369-5.8-9.596-9.373-16.334-9.373V4.473c11.502,0,20.824,9.266,20.824,20.696S81.582,45.866,70.08,45.866L70.08,45.866z"/>
	<path id="Path_7_" fill="#007A3E" d="M70.23,49.908c13.867,0,25.107-11.172,25.107-24.954C95.338,11.172,84.098,0,70.23,0v1.893
		c12.783,0,23.145,10.298,23.145,23.002c0,12.705-10.361,23.004-23.145,23.004V49.908z"/>
	<path fill="#004A00" d="M80.943,19.718c-0.363,1.689-0.559,3.439-0.559,5.236c0,1.921,0.226,3.789,0.639,5.584
		c0.795-1.609,1.254-3.412,1.254-5.326C82.277,23.232,81.79,21.369,80.943,19.718z"/>
	<path fill="#006B00" d="M85.589,19.496c-0.56,1.872-0.871,3.85-0.871,5.902c0,1.955,0.291,3.839,0.801,5.632
		c0.702-1.823,1.103-3.795,1.103-5.863C86.621,23.171,86.245,21.266,85.589,19.496z"/>
	<path fill="#017D24" d="M90.083,19.46c-0.685,1.805-1.077,3.752-1.077,5.795c0,2.017,0.383,3.939,1.052,5.724
		c0.542-1.845,0.847-3.791,0.847-5.81C90.904,23.187,90.607,21.276,90.083,19.46z"/>
	<path fill="#006037" d="M94.675,30.645c0.323-1.381,0.536-2.803,0.619-4.261c-0.057-0.437-0.097-0.878-0.097-1.331
		c0-0.475,0.044-0.938,0.107-1.396c-0.075-1.457-0.283-2.878-0.6-4.258c-0.73,1.374-1.204,2.903-1.354,4.526
		c0.014,0.322,0.024,0.645,0.024,0.97c0,0.396-0.01,0.791-0.03,1.182C93.483,27.714,93.946,29.257,94.675,30.645z"/>
	<path id="Path_8_" fill="#003B7E" d="M34.981,35.893l9.162-10.879l-8.448-10.053c-0.713-0.759-1.135-1.743-1.19-2.78
		c-0.021-0.9,0.33-1.77,0.97-2.407s1.515-0.985,2.421-0.964c1.373-0.01,2.654,0.683,3.391,1.833l7.259,9.461l7.378-9.46
		c0.832-1.064,1.904-1.893,3.153-1.893c0.886-0.042,1.753,0.273,2.401,0.875c0.65,0.601,1.028,1.437,1.049,2.319
		c-0.018,0.923-0.378,1.808-1.011,2.483L52.83,24.836l8.983,10.644c0.714,0.759,1.136,1.743,1.191,2.779
		c0.021,0.9-0.33,1.771-0.971,2.407s-1.516,0.984-2.422,0.963c-1.388,0.013-2.679-0.707-3.391-1.893l-7.795-9.992l-7.793,9.993
		c-0.833,1.005-1.904,1.892-3.213,1.892c-1.366-0.002-2.598-0.815-3.129-2.065C33.759,38.312,34.03,36.868,34.981,35.893
		L34.981,35.893z"/>
	<path id="Shape" fill="#003B7E" d="M17.072,8.87c-9.102,0-16.481,7.334-16.481,16.381v24.421c-0.013,0.851,0.321,1.67,0.927,2.272
		c0.605,0.602,1.43,0.934,2.286,0.921c0.862,0.016,1.695-0.313,2.311-0.914c0.615-0.601,0.962-1.422,0.962-2.279V38.259
		c5.709,4.313,13.571,4.456,19.436,0.354c5.864-4.103,8.382-11.505,6.225-18.303C30.58,13.512,24.243,8.885,17.072,8.87L17.072,8.87
		z M17.072,35.125c-5.504,0.016-9.979-4.405-9.995-9.875c-0.017-5.471,4.432-9.918,9.936-9.935c5.504-0.016,9.979,4.406,9.996,9.875
		c0.011,2.628-1.03,5.152-2.895,7.017C22.25,34.07,19.717,35.121,17.072,35.125L17.072,35.125z"/>
	<path id="Shape_1_" fill="#0055AD" d="M106.678,0.444h-0.553c-0.055-0.003-0.098-0.046-0.102-0.101
		c0.004-0.054,0.047-0.098,0.102-0.101h1.32c0.055,0.003,0.098,0.047,0.102,0.101c-0.004,0.054-0.047,0.097-0.102,0.1h-0.529v1.603
		c0,0.059-0.048,0.106-0.107,0.106c-0.059,0-0.107-0.047-0.107-0.106L106.678,0.444L106.678,0.444z M107.939,0.343
		c0-0.059,0.047-0.107,0.106-0.107c0.042-0.001,0.082,0.022,0.103,0.06l0.678,1.017l0.708-1.017
		c0.018-0.036,0.054-0.059,0.095-0.059h0.029c0.057,0.003,0.102,0.049,0.102,0.106v1.703c0,0.057-0.044,0.103-0.101,0.106
		c-0.06-0.002-0.107-0.048-0.113-0.106V0.632l-0.595,0.888c-0.017,0.036-0.053,0.059-0.093,0.059s-0.075-0.023-0.093-0.059
		l-0.594-0.888v1.414c0,0.059-0.049,0.106-0.107,0.106c-0.057-0.003-0.102-0.05-0.102-0.106L107.939,0.343L107.939,0.343z"/>
	<g>
		<path fill="#004100" d="M81.841,16.573c0.51,0.693,0.957,1.432,1.339,2.211c0.231-0.838,0.511-1.657,0.832-2.454
			c-0.404-0.629-0.847-1.231-1.332-1.798C82.372,15.198,82.09,15.877,81.841,16.573z"/>
		<path fill="#004100" d="M84.144,33.791c-0.345-0.815-0.638-1.657-0.888-2.517c-0.38,0.8-0.828,1.56-1.343,2.271
			c0.267,0.722,0.567,1.427,0.896,2.115C83.301,35.073,83.737,34.442,84.144,33.791z"/>
	</g>
	<g>
		<path fill="#006022" d="M87.854,18.859c0.305-0.821,0.669-1.625,1.093-2.407c-0.319-0.683-0.676-1.342-1.066-1.982
			c-0.398,0.635-0.761,1.292-1.089,1.97C87.205,17.228,87.561,18.035,87.854,18.859z"/>
		<path fill="#006022" d="M87.768,31.59c-0.312,0.841-0.686,1.664-1.123,2.464c0.327,0.705,0.694,1.386,1.097,2.045
			c0.41-0.654,0.783-1.333,1.12-2.033C88.435,33.261,88.068,32.435,87.768,31.59z"/>
	</g>
	<g>
		<path fill="#005736" d="M93.037,14.521c-0.485,0.559-0.936,1.146-1.343,1.767c0.319,0.788,0.597,1.598,0.829,2.426
			c0.386-0.765,0.838-1.488,1.35-2.168C93.624,15.855,93.344,15.181,93.037,14.521z"/>
		<path fill="#005736" d="M93.753,33.688c-0.511-0.7-0.958-1.446-1.338-2.233c-0.254,0.848-0.552,1.676-0.897,2.479
			c0.406,0.647,0.846,1.272,1.336,1.855C93.186,35.106,93.484,34.404,93.753,33.688z"/>
	</g>
	<g>
		<path fill="#003A1C" d="M86.438,37.95c-0.403-0.581-0.779-1.181-1.129-1.799c-0.421,0.574-0.871,1.121-1.35,1.639
			c0.353,0.584,0.733,1.149,1.132,1.701C85.566,39,86.015,38.485,86.438,37.95z"/>
		<path fill="#003A1C" d="M83.848,12.312c0.467,0.496,0.91,1.017,1.324,1.565c0.33-0.601,0.688-1.185,1.069-1.751
			c-0.418-0.51-0.859-0.999-1.323-1.467C84.54,11.195,84.183,11.746,83.848,12.312z"/>
	</g>
	<g>
		<path fill="#004332" d="M91.639,37.994c-0.477-0.518-0.925-1.064-1.344-1.638c-0.354,0.611-0.736,1.205-1.144,1.779
			c0.423,0.537,0.87,1.054,1.344,1.546C90.898,39.136,91.28,38.573,91.639,37.994z"/>
		<path fill="#004332" d="M89.52,12.184c0.377,0.565,0.733,1.146,1.061,1.744c0.418-0.542,0.869-1.051,1.339-1.54
			c-0.333-0.567-0.688-1.121-1.063-1.659C90.387,11.192,89.941,11.678,89.52,12.184z"/>
	</g>
	<g>
		<path fill="#00292A" d="M87.861,39.79c-0.436,0.508-0.89,0.999-1.367,1.468c0.438,0.503,0.892,0.991,1.367,1.458
			c0.477-0.467,0.931-0.954,1.368-1.457C88.752,40.789,88.297,40.299,87.861,39.79z"/>
		<path fill="#00292A" d="M86.55,8.585c0.458,0.452,0.894,0.926,1.312,1.415c0.419-0.489,0.854-0.963,1.312-1.415
			c-0.42-0.48-0.855-0.946-1.312-1.393C87.406,7.639,86.97,8.105,86.55,8.585z"/>
	</g>
</g>
</svg>
