<?xml version="1.0" encoding="UTF-8"?>
<svg width="257px" height="48px" viewBox="0 0 257 48" version="1.1" xmlns="http://www.w3.org/2000/svg" xmlns:xlink="http://www.w3.org/1999/xlink">
    <!-- Generator: Sketch 52.6 (67491) - http://www.bohemiancoding.com/sketch -->
    <title>trusted-form-logo</title>
    <desc>Created with Sketch.</desc>
    <g id="Page-1" stroke="none" stroke-width="1" fill="none" fill-rule="evenodd">
        <g id="home-page" transform="translate(-600.000000, -6763.000000)">
            <g id="trusted-form-logo" transform="translate(600.000000, 6763.000000)">
                <g id="Group" fill="#8A9423">
                    <path d="M28.7803279,8.84571429 C28.7803279,8.02285714 28.0918033,7.33714286 27.2655738,7.33714286 L9.01967213,7.33714286 C8.19344262,7.33714286 7.50491803,8.02285714 7.50491803,8.84571429 C7.50491803,9.66857143 8.19344262,10.3542857 9.01967213,10.3542857 L27.2655738,10.3542857 C28.0918033,10.3542857 28.7803279,9.66857143 28.7803279,8.84571429 Z M9.01967213,14.4 C8.19344262,14.4 7.50491803,15.0857143 7.50491803,15.9085714 C7.50491803,16.7314286 8.19344262,17.4171429 9.01967213,17.4171429 L20.0360656,17.4171429 C20.8622951,17.4171429 21.5508197,16.7314286 21.5508197,15.9085714 C21.5508197,15.0857143 20.8622951,14.4 20.0360656,14.4 L9.01967213,14.4 Z" id="Shape" fill-rule="nonzero"></path>
                    <path d="M22.3081967,28.1828571 C22.652459,28.4571429 22.9967213,28.5942857 23.4098361,28.5257143 C23.8229508,28.5257143 24.1672131,28.32 24.442623,27.9771429 L41.5868852,7.40571429 C42.1377049,6.78857143 42.0688525,5.82857143 41.3803279,5.28 C40.7606557,4.73142857 39.7967213,4.86857143 39.2459016,5.48571429 L23.1344262,24.8914286 L16.9377049,19.5428571 C16.5934426,19.2685714 16.1803279,19.1314286 15.7672131,19.2 C15.3540984,19.2685714 14.9409836,19.4742857 14.7344262,19.7485714 L9.08852459,27.0171429 C8.60655738,27.6342857 8.67540984,28.5942857 9.29508197,29.1428571 L22.7901639,40.5942857 C23.4098361,41.1428571 24.3737705,41.0742857 24.9245902,40.4571429 L35.1836066,28.5942857 L35.1836066,40.9371429 C35.1836066,42.7885714 33.6688525,44.2971429 31.8098361,44.2971429 L6.8852459,44.2971429 C5.02622951,44.2971429 3.51147541,42.7885714 3.51147541,40.9371429 L3.51147541,6.72 C3.51147541,4.86857143 5.02622951,3.36 6.8852459,3.36 L34.4262295,3.36 C35.252459,3.36 35.9409836,2.67428571 35.9409836,1.85142857 C35.9409836,1.02857143 35.252459,0.342857143 34.4262295,0.342857143 L6.8852459,0.342857143 C3.30491803,0.342857143 0.413114754,3.22285714 0.413114754,6.78857143 L0.413114754,41.0057143 C0.413114754,44.5714286 3.30491803,47.4514286 6.8852459,47.4514286 L31.8098361,47.4514286 C35.3901639,47.4514286 38.2819672,44.5714286 38.2819672,41.0057143 L38.2819672,24.5485714 C38.2819672,23.9314286 37.8688525,23.3142857 37.2491803,23.1085714 C36.6295082,22.9028571 36.0098361,23.04 35.5278689,23.52 L23.6163934,37.2342857 L12.3245902,27.7714286 L16.1114754,22.9028571 L22.3081967,28.1828571 Z" id="Path"></path>
                </g>
                <g id="Group" transform="translate(50.000000, 9.000000)" fill="#233137" fill-rule="nonzero">
                    <path d="M9.11622517,3.73333333 L1.85066225,3.73333333 C1.16523179,3.73333333 0.548344371,3.2 0.548344371,2.46666667 C0.548344371,1.73333333 1.16523179,1.2 1.85066225,1.2 L19.192053,1.2 C19.8774834,1.2 20.4943709,1.8 20.4943709,2.46666667 C20.4943709,3.13333333 19.8774834,3.73333333 19.192053,3.73333333 L11.9264901,3.73333333 L11.9264901,24.2666667 C11.9264901,25 11.3096026,25.6666667 10.4870861,25.6666667 C9.66456954,25.6666667 9.04768212,25.0666667 9.04768212,24.2666667 L9.04768212,3.73333333 L9.11622517,3.73333333 Z M20.5629139,8.73333333 C20.5629139,8 21.1798013,7.4 21.9337748,7.4 C22.6877483,7.4 23.3046358,8 23.3046358,8.73333333 L23.3046358,12.0666667 C24.6754967,9.06666667 27.3486755,7.26666667 29.6791391,7.26666667 C30.5016556,7.26666667 31.05,7.86666667 31.05,8.6 C31.05,9.33333333 30.5701987,9.86666667 29.8162252,9.93333333 C26.2519868,10.3333333 23.3046358,12.9333333 23.3046358,18.1333333 L23.3046358,24.2666667 C23.3046358,25 22.7562914,25.6 21.9337748,25.6 C21.1798013,25.6 20.5629139,25 20.5629139,24.2666667 L20.5629139,8.73333333 Z M49.3509934,24.2666667 C49.3509934,25 48.802649,25.6 47.9801325,25.6 C47.2261589,25.6 46.6092715,25 46.6092715,24.2666667 L46.6092715,22.3333333 C45.3754967,24.2666667 43.4562914,25.8666667 40.3033113,25.8666667 C35.8480132,25.8666667 33.2433775,22.9333333 33.2433775,18.6666667 L33.2433775,8.73333333 C33.2433775,8 33.7917219,7.4 34.6142384,7.4 C35.3682119,7.4 35.9850993,8 35.9850993,8.73333333 L35.9850993,18 C35.9850993,21.3333333 37.8357616,23.4 41.0572848,23.4 C44.2102649,23.4 46.6092715,21.1333333 46.6092715,17.8 L46.6092715,8.73333333 C46.6092715,8 47.1576159,7.4 47.9801325,7.4 C48.734106,7.4 49.3509934,8 49.3509934,8.73333333 L49.3509934,24.2666667 Z M53.1208609,23.5333333 C52.8466887,23.3333333 52.6410596,23 52.6410596,22.5333333 C52.6410596,21.9333333 53.189404,21.4 53.8748344,21.4 C54.1490066,21.4 54.3546358,21.4666667 54.5602649,21.6 C56.4794702,22.8666667 58.3986755,23.5333333 60.3864238,23.5333333 C62.5798013,23.5333333 64.2248344,22.4 64.2248344,20.6666667 C64.2248344,18.8666667 62.031457,18.2 59.6324503,17.5333333 C56.7536424,16.7333333 53.5321192,15.7333333 53.5321192,12.4666667 L53.5321192,12.4 C53.5321192,9.33333333 56.136755,7.26666667 59.8380795,7.26666667 C61.8258278,7.26666667 63.9506623,7.86666667 65.7327815,8.8 C66.0754967,9 66.4182119,9.4 66.4182119,9.93333333 C66.4182119,10.5333333 65.8698675,11.0666667 65.1844371,11.0666667 C64.9102649,11.0666667 64.7046358,11 64.5675497,10.9333333 C62.9910596,10.0666667 61.3460265,9.53333333 59.7695364,9.53333333 C57.5761589,9.53333333 56.205298,10.6666667 56.205298,12.1333333 L56.205298,12.2 C56.205298,13.8666667 58.4672185,14.5333333 60.9347682,15.2666667 C63.8135762,16.0666667 66.8294702,17.2 66.8294702,20.4 L66.8294702,20.4666667 C66.8294702,23.8666667 63.9506623,25.8666667 60.2493377,25.8666667 C57.7817881,25.8 55.1086093,24.9333333 53.1208609,23.5333333 Z M71.010596,20.7333333 L71.010596,9.86666667 L69.502649,9.86666667 C68.8857616,9.86666667 68.2688742,9.33333333 68.2688742,8.66666667 C68.2688742,8 68.8172185,7.46666667 69.502649,7.46666667 L71.010596,7.46666667 L71.010596,3.33333333 C71.010596,2.6 71.5589404,2 72.381457,2 C73.1354305,2 73.7523179,2.6 73.7523179,3.33333333 L73.7523179,7.53333333 L78.5503311,7.53333333 C79.2357616,7.53333333 79.784106,8.06666667 79.784106,8.73333333 C79.784106,9.4 79.2357616,9.93333333 78.5503311,9.93333333 L73.7523179,9.93333333 L73.7523179,20.4 C73.7523179,22.6 74.9860927,23.4 76.836755,23.4 C77.7963576,23.4 78.2761589,23.1333333 78.4817881,23.1333333 C79.0986755,23.1333333 79.6470199,23.6666667 79.6470199,24.2666667 C79.6470199,24.7333333 79.3043046,25.1333333 78.8930464,25.3333333 C78.1390728,25.6666667 77.2480132,25.8 76.1513245,25.8 C73.2725166,25.8 71.010596,24.3333333 71.010596,20.7333333 Z M90.5453642,25.8666667 C85.4731788,25.8666667 81.360596,22.0666667 81.360596,16.5333333 L81.360596,16.4666667 C81.360596,11.3333333 85.1304636,7.13333333 90.202649,7.13333333 C95.6860927,7.13333333 98.7705298,11.4666667 98.7705298,16.2 C98.7705298,16.9333333 98.1536424,17.4666667 97.4682119,17.4666667 L84.1708609,17.4666667 C84.5821192,21.3333333 87.3923841,23.5333333 90.6824503,23.5333333 C92.9443709,23.5333333 94.657947,22.6666667 95.9602649,21.4666667 C96.165894,21.2666667 96.4400662,21.1333333 96.7142384,21.1333333 C97.3996689,21.1333333 97.9480132,21.6666667 97.9480132,22.2666667 C97.9480132,22.6 97.8109272,22.8666667 97.536755,23.1333333 C95.7546358,24.8 93.6983444,25.8666667 90.5453642,25.8666667 Z M96.0288079,15.5333333 C95.7546358,12.2666667 93.8354305,9.4 90.134106,9.4 C86.9125828,9.4 84.5135762,12 84.1708609,15.5333333 L96.0288079,15.5333333 Z M119.744702,24.2666667 C119.744702,25 119.127815,25.6 118.373841,25.6 C117.619868,25.6 117.00298,25 117.00298,24.2666667 L117.00298,21.8666667 C115.495033,24 113.301656,25.8666667 109.943046,25.8666667 C105.556291,25.8666667 101.169536,22.4666667 101.169536,16.6 L101.169536,16.5333333 C101.169536,10.6666667 105.556291,7.2 109.943046,7.2 C113.370199,7.2 115.563576,9 117.00298,11 L117.00298,1.33333333 C117.00298,0.6 117.551325,0 118.373841,0 C119.127815,0 119.744702,0.6 119.744702,1.33333333 L119.744702,24.2666667 Z M103.911258,16.4666667 L103.911258,16.5333333 C103.911258,20.7333333 106.927152,23.4666667 110.422848,23.4666667 C113.85,23.4666667 117.071523,20.6666667 117.071523,16.5333333 L117.071523,16.4666667 C117.071523,12.3333333 113.85,9.6 110.422848,9.6 C106.858609,9.53333333 103.911258,12.1333333 103.911258,16.4666667 Z M124.88543,2.6 C124.88543,1.86666667 125.502318,1.2 126.256291,1.2 L141.678477,1.2 C142.363907,1.2 142.980795,1.73333333 142.980795,2.46666667 C142.980795,3.2 142.43245,3.73333333 141.678477,3.73333333 L127.695695,3.73333333 L127.695695,12.4 L140.101987,12.4 C140.787417,12.4 141.404305,12.9333333 141.404305,13.6666667 C141.404305,14.4 140.85596,14.9333333 140.101987,14.9333333 L127.695695,14.9333333 L127.695695,24.2666667 C127.695695,25 127.078808,25.6666667 126.256291,25.6666667 C125.502318,25.6666667 124.88543,25.0666667 124.88543,24.2666667 L124.88543,2.6 Z M143.254967,16.6 L143.254967,16.5333333 C143.254967,11.4666667 147.299007,7.2 152.850993,7.2 C158.40298,7.2 162.44702,11.4 162.44702,16.4666667 L162.44702,16.5333333 C162.44702,21.6 158.334437,25.8666667 152.78245,25.8666667 C147.299007,25.8666667 143.254967,21.6666667 143.254967,16.6 Z M159.636755,16.6 L159.636755,16.5333333 C159.636755,12.6666667 156.689404,9.53333333 152.78245,9.53333333 C148.806954,9.53333333 146.065232,12.6666667 146.065232,16.4666667 L146.065232,16.5333333 C146.065232,20.4 149.012583,23.5333333 152.850993,23.5333333 C156.895033,23.4666667 159.636755,20.3333333 159.636755,16.6 Z M166.011258,8.73333333 C166.011258,8 166.628146,7.4 167.382119,7.4 C168.136093,7.4 168.75298,8 168.75298,8.73333333 L168.75298,12.0666667 C170.123841,9.06666667 172.79702,7.26666667 175.127483,7.26666667 C175.95,7.26666667 176.498344,7.86666667 176.498344,8.6 C176.498344,9.33333333 176.018543,9.86666667 175.26457,9.93333333 C171.700331,10.3333333 168.75298,12.9333333 168.75298,18.1333333 L168.75298,24.2666667 C168.75298,25 168.204636,25.6 167.382119,25.6 C166.628146,25.6 166.011258,25 166.011258,24.2666667 L166.011258,8.73333333 Z M179.034437,8.73333333 C179.034437,8 179.651325,7.4 180.405298,7.4 C181.159272,7.4 181.776159,8 181.776159,8.73333333 L181.776159,10.6 C183.009934,8.8 184.654967,7.2 187.739404,7.2 C190.755298,7.2 192.674503,8.73333333 193.634106,10.8 C194.936424,8.8 196.924172,7.2 200.145695,7.2 C204.395364,7.2 207,10 207,14.4 L207,24.3333333 C207,25.0666667 206.383113,25.6666667 205.629139,25.6666667 C204.875166,25.6666667 204.258278,25.0666667 204.258278,24.3333333 L204.258278,15 C204.258278,11.5333333 202.476159,9.6 199.460265,9.6 C196.65,9.6 194.388079,11.6 194.388079,15.1333333 L194.388079,24.2666667 C194.388079,25 193.771192,25.6 193.017219,25.6 C192.263245,25.6 191.646358,25 191.646358,24.2666667 L191.646358,14.9333333 C191.646358,11.6 189.795695,9.6 186.916887,9.6 C183.969536,9.6 181.776159,11.9333333 181.776159,15.2666667 L181.776159,24.3333333 C181.776159,25.0666667 181.227815,25.6666667 180.405298,25.6666667 C179.651325,25.6666667 179.034437,25.0666667 179.034437,24.3333333 L179.034437,8.73333333 Z" id="Shape"></path>
                </g>
            </g>
        </g>
    </g>
</svg>