<?xml version="1.0" encoding="UTF-8"?>
<svg width="300px" height="69px" viewBox="0 0 300 69" version="1.1" xmlns="http://www.w3.org/2000/svg" xmlns:xlink="http://www.w3.org/1999/xlink">
    <!-- Generator: Sketch 52.6 (67491) - http://www.bohemiancoding.com/sketch -->
    <title>active-prospect-logo</title>
    <desc>Created with Sketch.</desc>
    <g id="Page-1" stroke="none" stroke-width="1" fill="none" fill-rule="evenodd">
        <g id="home-page" transform="translate(-110.000000, -6569.000000)">
            <g id="active-prospect-logo" transform="translate(110.000000, 6569.000000)">
                <path d="M52.5348146,36 C51.748176,36 51.1090322,35.4342593 51.0107024,34.6113638 C50.9123726,33.7370372 51.5023515,32.9141417 52.3381549,32.8112797 L65.2685258,31.0111957 C66.1043292,30.9083338 66.8909678,31.5255054 66.9892976,32.3998319 C67.0876274,33.2741585 66.4976485,34.097054 65.6618451,34.199916 L52.7314742,36 L52.5348146,36 Z" id="Shape" fill="#6C7B84"></path>
                <path d="M1.60644856,42 C0.783085178,42 0.11410243,41.3296899 0.0111820075,40.4359431 C-0.0917384152,39.4863371 0.525784121,38.5925903 1.45206793,38.4808719 L36.1877106,34.0121379 C37.0625342,33.9004195 37.8858976,34.5707296 37.988818,35.5761948 C38.0917384,36.5258008 37.4742159,37.4195476 36.5479321,37.5312659 L1.81228941,42 L1.60644856,42 Z" id="Shape" fill="#6C7B84"></path>
                <path d="M47.5561914,29 C47.3553413,29 47.1544912,28.9494156 47.0038536,28.8988311 C46.2004532,28.5953245 45.7987529,27.6342202 46.1000281,26.8248693 L54.9374328,4.01128882 C55.238708,3.20193785 56.192746,2.79726237 56.9961464,3.10076898 C57.7995468,3.40427559 58.2012471,4.36537987 57.8999719,5.17473084 L49.0625672,27.9883113 C48.761292,28.5953245 48.1587417,29 47.5561914,29 Z" id="Shape" fill="#72B4C0"></path>
                <path d="M35.561843,56 C35.3648202,56 35.1677974,55.9521709 34.9215189,55.8565127 C34.1334277,55.5217091 33.7886378,54.6607854 34.1334277,53.8955199 L39.0589975,42.8948287 C39.4037874,42.1295632 40.29039,41.7947596 41.0784811,42.1295632 C41.8665723,42.4643669 42.2113622,43.3252905 41.8665723,44.090556 L36.9410025,55.0912472 C36.694724,55.6651964 36.1529113,56 35.561843,56 Z" id="Shape" fill="#72B4C0"></path>
                <path d="M42.5009402,28 C41.7862068,28 41.1191222,27.4340357 41.0238244,26.610815 L38.021944,5.87594191 C37.8789974,5.00126984 38.4507841,4.17804908 39.2608153,4.02369518 C40.0708465,3.86934129 40.8332289,4.48675686 40.9761756,5.36142893 L43.978056,26.096302 C44.1210026,26.970974 43.5492159,27.7941948 42.7391847,27.9485487 C42.6438869,28 42.596238,28 42.5009402,28 Z" id="Shape" fill="#6C7B84"></path>
                <path d="M46.5992919,66 C45.881387,66 45.2980892,65.380935 45.2083511,64.5555149 L43.0097673,43.8168364 C42.9200292,42.9398276 43.4584579,42.1144076 44.2212318,42.01123 C44.9840058,41.9080525 45.7019108,42.5271176 45.7916489,43.4041264 L47.9902327,64.1428049 C48.0799708,65.0198137 47.5415421,65.8452337 46.7787682,65.9484112 C46.7338991,66 46.68903,66 46.5992919,66 Z" id="Shape" fill="#6C7B84"></path>
                <path d="M35.4746081,34 C35.2777331,34 35.0808581,33.9490722 34.8839831,33.8981444 L15.9839858,26.1061926 C15.1964859,25.8006258 14.8027359,24.8329978 15.0980484,24.0181532 C15.3933609,23.2033086 16.328517,22.7958862 17.1160169,23.101453 L36.0160142,30.8934048 C36.8035141,31.1989716 37.1972641,32.1665996 36.9019516,32.9814442 C36.6558579,33.5925777 36.065233,34 35.4746081,34 Z" id="Shape" fill="#C0C933"></path>
                <path d="M69.4190651,49 C69.2186112,49 69.0181573,48.9459585 68.8177033,48.8919169 L51.9795731,41.2720587 C51.1777573,40.8937679 50.7768495,39.9210201 51.1276439,39.0563553 C51.4784382,38.1916906 52.3804809,37.7593582 53.1822967,38.137649 L70.0204269,45.7575072 C70.8222427,46.135798 71.2231505,47.1085458 70.8723561,47.9732106 C70.6217887,48.6217092 70.0705404,49 69.4190651,49 Z" id="Shape" fill="#C0C933"></path>
                <g id="Shape" transform="translate(79.000000, 23.000000)" fill="#233137">
                    <path d="M0.55,21.4500923 L9.55,1.93199446 C9.85,1.23845799 10.35,0.842151431 11.15,0.842151431 L11.3,0.842151431 C12.05,0.842151431 12.55,1.23845799 12.85,1.93199446 L21.85,21.400554 C21.95,21.5987073 22,21.8463989 22,22.0445522 C22,22.6885503 21.45,23.2334718 20.8,23.2334718 C20.2,23.2334718 19.8,22.8371653 19.55,22.3417821 L17.25,17.2888735 L5.1,17.2888735 L2.8,22.3913204 C2.6,22.9362419 2.15,23.2334718 1.6,23.2334718 C0.95,23.2334718 0.45,22.7380886 0.45,22.0940905 C0.4,21.8959372 0.45,21.6977839 0.55,21.4500923 Z M16.25,15.0101108 L11.15,3.76491228 L6.05,15.0101108 L16.25,15.0101108 Z" fill-rule="nonzero"></path>
                    <path d="M23.5,15.0101108 L23.5,14.9605725 C23.5,10.3535088 27.1,6.48951985 31.9,6.48951985 C34.65,6.48951985 36.45,7.52982456 37.9,8.86735919 C38.1,9.01597415 38.3,9.36274238 38.3,9.70951062 C38.3,10.3535088 37.75,10.848892 37.15,10.848892 C36.85,10.848892 36.55,10.700277 36.35,10.551662 C35.2,9.46181902 33.85,8.61966759 31.9,8.61966759 C28.55,8.61966759 26.05,11.3938135 26.05,14.9110342 L26.05,14.9605725 C26.05,18.4777932 28.65,21.2519391 32.05,21.2519391 C33.9,21.2519391 35.4,20.4097876 36.6,19.2704063 C36.75,19.1217913 37,18.9731764 37.3,18.9731764 C37.9,18.9731764 38.4,19.5180979 38.4,20.0630194 C38.4,20.3602493 38.25,20.6079409 38.1,20.8060942 C36.55,22.3417821 34.7,23.4316251 31.9,23.4316251 C27.1,23.4316251 23.5,19.5676362 23.5,15.0101108 Z" id="Path"></path>
                    <path d="M42.45,18.7750231 L42.45,8.96643583 L41.1,8.96643583 C40.55,8.96643583 40,8.47105263 40,7.8765928 C40,7.28213296 40.5,6.78674977 41.1,6.78674977 L42.45,6.78674977 L42.45,2.97229917 C42.45,2.32830102 42.95,1.73384118 43.65,1.73384118 C44.3,1.73384118 44.9,2.2787627 44.9,2.97229917 L44.9,6.78674977 L49.15,6.78674977 C49.75,6.78674977 50.25,7.28213296 50.25,7.8765928 C50.25,8.47105263 49.75,8.96643583 49.15,8.96643583 L44.9,8.96643583 L44.9,18.4282548 C44.9,20.4097876 46,21.1528624 47.65,21.1528624 C48.5,21.1528624 48.95,20.9547091 49.15,20.9547091 C49.7,20.9547091 50.2,21.4500923 50.2,21.9950139 C50.2,22.4408587 49.9,22.787627 49.5,22.9362419 C48.8,23.2334718 48.05,23.3820868 47.1,23.3820868 C44.45,23.3325485 42.45,22.0445522 42.45,18.7750231 Z" id="Path"></path>
                    <path d="M52.65,1.73384118 C52.65,0.94122807 53.3,0.445844875 54.1,0.445844875 C54.9,0.445844875 55.55,0.94122807 55.55,1.73384118 L55.55,2.13014774 C55.55,2.87322253 54.9,3.41814404 54.1,3.41814404 C53.3,3.41814404 52.65,2.87322253 52.65,2.13014774 L52.65,1.73384118 Z M52.9,7.8765928 C52.9,7.23259464 53.45,6.63813481 54.1,6.63813481 C54.8,6.63813481 55.35,7.18305633 55.35,7.8765928 L55.35,21.9950139 C55.35,22.6885503 54.85,23.2334718 54.15,23.2334718 C53.45,23.2334718 52.9,22.6885503 52.9,21.9950139 L52.9,7.8765928 Z" fill-rule="nonzero"></path>
                    <path d="M65.85,23.3325485 L65.7,23.3325485 C65.05,23.3325485 64.6,22.9362419 64.3,22.2922438 L58.15,8.52059095 C58.1,8.32243767 58,8.07474608 58,7.8765928 C58,7.23259464 58.55,6.68767313 59.25,6.68767313 C59.95,6.68767313 60.3,7.08397969 60.5,7.6289012 L65.8,20.310711 L71.2,7.57936288 C71.35,7.08397969 71.7,6.68767313 72.35,6.68767313 C73,6.68767313 73.55,7.23259464 73.55,7.8765928 C73.55,8.07474608 73.5,8.32243767 73.4,8.47105263 L67.2,22.2922438 C66.9,22.9362419 66.5,23.3325485 65.85,23.3325485 Z" id="Path"></path>
                    <path d="M82.85,23.4316251 C78.35,23.4316251 74.65,20.0134811 74.65,14.9605725 L74.65,14.9110342 C74.65,10.2544321 78,6.43998153 82.5,6.43998153 C87.35,6.43998153 90.1,10.3535088 90.1,14.6633426 C90.1,15.3073407 89.55,15.8027239 88.95,15.8027239 L77.1,15.8027239 C77.45,19.3199446 79.95,21.3014774 82.85,21.3014774 C84.9,21.3014774 86.35,20.5088643 87.55,19.4190212 C87.75,19.2704063 87.95,19.1217913 88.25,19.1217913 C88.85,19.1217913 89.35,19.6171745 89.35,20.162096 C89.35,20.4593259 89.2,20.7070175 88.95,20.9547091 C87.5,22.490397 85.65,23.4316251 82.85,23.4316251 Z M87.7,14.0688827 C87.45,11.0965836 85.75,8.52059095 82.45,8.52059095 C79.6,8.52059095 77.45,10.8984303 77.1,14.0688827 L87.7,14.0688827 Z" fill-rule="nonzero"></path>
                    <path d="M93.9,2.32830102 C93.9,1.63476454 94.45,1.08984303 95.15,1.08984303 L102.2,1.08984303 C107.2,1.08984303 110.5,3.71537396 110.5,8.07474608 L110.5,8.1242844 C110.5,12.8799631 106.5,15.3073407 101.8,15.3073407 L96.4,15.3073407 L96.4,21.9454755 C96.4,22.639012 95.85,23.1839335 95.15,23.1839335 C94.5,23.1839335 93.9,22.639012 93.9,21.9454755 L93.9,2.32830102 Z M101.85,13.028578 C105.55,13.028578 107.95,11.0965836 107.95,8.17382271 L107.95,8.1242844 C107.95,5.00337027 105.55,3.36860572 102,3.36860572 L96.4,3.36860572 L96.4,13.028578 L101.85,13.028578 Z" fill-rule="nonzero"></path>
                    <path d="M113.3,7.8765928 C113.3,7.23259464 113.85,6.63813481 114.5,6.63813481 C115.2,6.63813481 115.75,7.18305633 115.75,7.8765928 L115.75,10.9479686 C116.95,8.22336103 119.35,6.63813481 121.4,6.63813481 C122.15,6.63813481 122.6,7.18305633 122.6,7.8765928 C122.6,8.52059095 122.15,9.01597415 121.5,9.11505078 C118.35,9.51135734 115.75,11.8396584 115.75,16.5457987 L115.75,22.0940905 C115.75,22.7380886 115.25,23.3325485 114.55,23.3325485 C113.85,23.3325485 113.3,22.787627 113.3,22.0940905 L113.3,7.8765928 Z" id="Path"></path>
                    <path d="M123.05,15.0101108 L123.05,14.9605725 C123.05,10.3535088 126.65,6.48951985 131.6,6.48951985 C136.5,6.48951985 140.15,10.3039705 140.15,14.9110342 L140.15,14.9605725 C140.15,19.5676362 136.5,23.4316251 131.55,23.4316251 C126.65,23.4316251 123.05,19.6171745 123.05,15.0101108 Z M137.65,15.0101108 L137.65,14.9605725 C137.65,11.4928901 135,8.61966759 131.55,8.61966759 C128,8.61966759 125.55,11.4928901 125.55,14.9110342 L125.55,14.9605725 C125.55,18.4282548 128.15,21.2519391 131.6,21.2519391 C135.15,21.3014774 137.65,18.4777932 137.65,15.0101108 Z" fill-rule="nonzero"></path>
                    <path d="M142.3,21.3510157 C142.1,21.2024007 141.85,20.8556325 141.85,20.4593259 C141.85,19.9144044 142.35,19.4190212 142.95,19.4190212 C143.15,19.4190212 143.4,19.4685596 143.55,19.6171745 C145.25,20.7565559 146.95,21.3510157 148.75,21.3510157 C150.7,21.3510157 152.15,20.3602493 152.15,18.7750231 L152.15,18.7254848 C152.15,17.0907202 150.2,16.4467221 148.05,15.8522622 C145.5,15.1091874 142.65,14.267036 142.65,11.2451985 L142.65,11.1956602 C142.65,8.42151431 145,6.53905817 148.25,6.53905817 C150,6.53905817 151.9,7.08397969 153.5,7.92613112 C153.8,8.1242844 154.1,8.47105263 154.1,8.91689751 C154.1,9.46181902 153.6,9.95720222 153,9.95720222 C152.8,9.95720222 152.6,9.9076639 152.45,9.80858726 C151.05,9.01597415 149.55,8.57012927 148.15,8.57012927 C146.2,8.57012927 145,9.56089566 145,10.9479686 L145,10.9975069 C145,12.5331948 147.05,13.1276547 149.2,13.7716528 C151.75,14.5147276 154.45,15.505494 154.45,18.4282548 L154.45,18.4777932 C154.45,21.549169 151.9,23.3325485 148.6,23.3325485 C146.45,23.3820868 144.1,22.5894737 142.3,21.3510157 Z" id="Path"></path>
                    <path d="M157.7,7.8765928 C157.7,7.18305633 158.25,6.63813481 158.9,6.63813481 C159.6,6.63813481 160.15,7.18305633 160.15,7.8765928 L160.15,10.0562789 C161.5,8.1242844 163.4,6.43998153 166.45,6.43998153 C170.4,6.43998153 174.3,9.51135734 174.3,14.8614958 L174.3,14.9110342 C174.3,20.2116343 170.45,23.3820868 166.45,23.3820868 C163.4,23.3820868 161.45,21.7473223 160.15,19.9144044 L160.15,26.9983841 C160.15,27.6919206 159.65,28.2368421 158.95,28.2368421 C158.25,28.2368421 157.7,27.6919206 157.7,26.9983841 L157.7,7.8765928 Z M171.75,15.0101108 L171.75,14.9605725 C171.75,11.1461219 169.1,8.66920591 166,8.66920591 C162.95,8.66920591 160.05,11.1956602 160.05,14.9110342 L160.05,14.9605725 C160.05,18.7254848 162.95,21.2519391 166,21.2519391 C169.15,21.2519391 171.75,18.923638 171.75,15.0101108 Z" fill-rule="nonzero"></path>
                    <path d="M184.8,23.4316251 C180.3,23.4316251 176.6,20.0134811 176.6,14.9605725 L176.6,14.9110342 C176.6,10.2544321 179.95,6.43998153 184.45,6.43998153 C189.3,6.43998153 192.05,10.3535088 192.05,14.6633426 C192.05,15.3073407 191.5,15.8027239 190.9,15.8027239 L179.05,15.8027239 C179.4,19.3199446 181.9,21.3014774 184.8,21.3014774 C186.85,21.3014774 188.3,20.5088643 189.5,19.4190212 C189.7,19.2704063 189.9,19.1217913 190.2,19.1217913 C190.8,19.1217913 191.3,19.6171745 191.3,20.162096 C191.3,20.4593259 191.15,20.7070175 190.9,20.9547091 C189.4,22.490397 187.6,23.4316251 184.8,23.4316251 Z M189.65,14.0688827 C189.4,11.0965836 187.7,8.52059095 184.4,8.52059095 C181.55,8.52059095 179.4,10.8984303 179.05,14.0688827 L189.65,14.0688827 Z" fill-rule="nonzero"></path>
                    <path d="M194.25,15.0101108 L194.25,14.9605725 C194.25,10.3535088 197.85,6.48951985 202.65,6.48951985 C205.4,6.48951985 207.2,7.52982456 208.65,8.86735919 C208.85,9.01597415 209.05,9.36274238 209.05,9.70951062 C209.05,10.3535088 208.5,10.848892 207.9,10.848892 C207.6,10.848892 207.3,10.700277 207.1,10.551662 C205.95,9.46181902 204.6,8.61966759 202.65,8.61966759 C199.3,8.61966759 196.8,11.3938135 196.8,14.9110342 L196.8,14.9605725 C196.8,18.4777932 199.4,21.2519391 202.8,21.2519391 C204.65,21.2519391 206.15,20.4097876 207.35,19.2704063 C207.5,19.1217913 207.75,18.9731764 208.05,18.9731764 C208.65,18.9731764 209.15,19.5180979 209.15,20.0630194 C209.15,20.3602493 209,20.6079409 208.85,20.8060942 C207.3,22.3417821 205.45,23.4316251 202.65,23.4316251 C197.85,23.4316251 194.25,19.5676362 194.25,15.0101108 Z" id="Path"></path>
                    <path d="M213.2,18.7750231 L213.2,8.96643583 L211.85,8.96643583 C211.3,8.96643583 210.75,8.47105263 210.75,7.8765928 C210.75,7.28213296 211.25,6.78674977 211.85,6.78674977 L213.2,6.78674977 L213.2,2.97229917 C213.2,2.32830102 213.7,1.73384118 214.4,1.73384118 C215.05,1.73384118 215.65,2.2787627 215.65,2.97229917 L215.65,6.78674977 L219.9,6.78674977 C220.5,6.78674977 221,7.28213296 221,7.8765928 C221,8.47105263 220.5,8.96643583 219.9,8.96643583 L215.65,8.96643583 L215.65,18.4282548 C215.65,20.4097876 216.75,21.1528624 218.4,21.1528624 C219.25,21.1528624 219.7,20.9547091 219.9,20.9547091 C220.45,20.9547091 220.95,21.4500923 220.95,21.9950139 C220.95,22.4408587 220.65,22.787627 220.25,22.9362419 C219.55,23.2334718 218.8,23.3820868 217.85,23.3820868 C215.2,23.3325485 213.2,22.0445522 213.2,18.7750231 Z" id="Path"></path>
                </g>
                <path d="M50.5940484,31 C50.1465391,31 49.6990298,30.7926827 49.350967,30.3780482 C48.8040112,29.6524378 48.9034578,28.6676808 49.5995833,28.0975584 L74.4612098,7.36583247 C75.1573354,6.79571001 76.1020772,6.89936864 76.649033,7.62497905 C77.1959888,8.35058945 77.0965422,9.33534643 76.4004167,9.9054689 L51.5387902,30.6371948 C51.2901739,30.8963414 50.9421111,31 50.5940484,31 Z" id="Shape" fill="#EE6F2F"></path>
                <path d="M20.5378828,55 C20.1009374,55 19.6154424,54.8074928 19.3241454,54.4224783 C18.790101,53.748703 18.9357495,52.7861668 19.6154424,52.3048987 L35.5396768,40.3213233 C36.2193697,39.7919284 37.1903596,39.9363089 37.6758546,40.6100842 C38.209899,41.2838595 38.0642505,42.2463957 37.3845576,42.7276638 L21.4603232,54.7112391 C21.1690263,54.9037464 20.8291798,55 20.5378828,55 Z" id="Shape" fill="#EE6F2F"></path>
                <path d="M39.4134149,30 C38.9490142,30 38.4330135,29.8009117 38.1234131,29.4027352 L16.3481835,2.52581948 C15.7805827,1.82901055 15.9353829,0.833569231 16.6061838,0.335848569 C17.3285848,-0.211644159 18.3089861,-0.0623279601 18.8765869,0.5847089 L40.6518165,27.4616246 C41.2194173,28.1584336 41.0646171,29.1041028 40.3938162,29.6515955 C40.1358158,29.9004559 39.7746154,30 39.4134149,30 Z" id="Shape" fill="#EE6F2F"></path>
                <path d="M67.5068259,69 C67.0290102,69 66.5989761,68.8022075 66.3122867,68.3571744 L48.2986348,43.4847682 C47.8208191,42.7924945 47.9163823,41.803532 48.5853242,41.3090508 C49.2542662,40.8145695 50.2098976,40.9134658 50.6877133,41.6057395 L68.7013652,66.4781457 C69.1791809,67.1704194 69.0836177,68.1593819 68.4146758,68.6538631 C68.1757679,68.9011038 67.8412969,69 67.5068259,69 Z" id="Shape" fill="#EE6F2F"></path>
            </g>
        </g>
    </g>
</svg>