<?xml version="1.0" encoding="UTF-8"?>
<svg width="223px" height="76px" viewBox="0 0 223 76" version="1.1" xmlns="http://www.w3.org/2000/svg" xmlns:xlink="http://www.w3.org/1999/xlink">
    <!-- Generator: Sketch 52.6 (67491) - http://www.bohemiancoding.com/sketch -->
    <title>anura-logo</title>
    <desc>Created with Sketch.</desc>
    <g id="Page-1" stroke="none" stroke-width="1" fill="none" fill-rule="evenodd">
        <g id="home-page" transform="translate(-899.000000, -6569.000000)">
            <g id="anura-logo" transform="translate(899.000000, 6569.000000)">
                <path d="M108.607843,55.408377 C108.607843,55.8062827 108.411765,56.2041885 108.019608,56.6020943 C107.627451,57 107.235294,57 106.843137,57 L103.705882,57 C103.313726,57 102.921569,56.8010471 102.72549,56.6020943 C102.333333,56.2041885 102.333333,55.8062827 102.333333,55.408377 L102.333333,26.9581152 C102.333333,25.1675393 101.352941,24.3717278 99.5882353,24.3717278 C98.8039216,24.3717278 97.8235294,24.5706807 96.4509804,25.1675393 C95.2745098,25.7643979 93.9019608,26.3612566 92.7254902,27.1570681 C91.3529412,27.9528796 90.1764706,28.947644 88.8039216,29.9424084 C87.627451,30.9371727 86.4509805,31.7329843 85.4705883,32.7277486 L85.4705883,55.408377 C85.4705883,55.8062827 85.2745098,56.2041885 85.0784314,56.6020943 C84.6862746,57 84.2941177,57 83.9019609,57 L80.5686276,57 C80.1764706,57 79.7843138,56.8010471 79.3921569,56.6020943 C79.1960785,56.2041885 79,56.0052356 79,55.408377 L79,20.7905759 C79,20.3926701 79.1960785,19.9947644 79.3921569,19.5968586 C79.5882354,19.1989529 79.9803922,19.1989529 80.5686276,19.1989529 L83.9019609,19.1989529 C84.2941177,19.1989529 84.6862746,19.3979057 85.0784314,19.5968586 C85.4705883,19.9947644 85.4705883,20.3926701 85.4705883,20.7905759 L85.4705883,27.1570681 C86.254902,26.3612566 87.4313725,25.3664922 88.6078432,24.3717278 C89.7843138,23.3769633 91.1568628,22.5811518 92.5294117,21.7853403 C93.9019608,20.9895288 95.2745098,20.3926701 96.8431372,19.7958115 C98.2156863,19.1989529 99.7843138,19 101.156863,19 C102.921569,19 104.490196,19.1989529 105.862745,19.7958115 C107.235294,20.3926701 108.215686,21.3874345 109,22.9790575 L108.607843,55.408377 Z" id="Path" fill="#585858"></path>
                <path d="M184,24.2857143 C184,24.6772486 183.801802,25.0687831 183.603603,25.2645503 C183.405406,25.4603175 182.81081,25.6560846 182.414415,25.6560846 C181.225225,25.6560846 179.837838,25.8518518 178.45045,26.4391534 C177.063063,27.026455 175.675675,27.6137566 174.486487,28.5925926 C173.099099,29.3756613 171.90991,30.3544973 170.918919,31.1375661 C169.729729,32.1164021 168.936937,32.8994709 168.144144,33.4867724 L168.144144,54.4338623 C168.144144,54.8253968 167.945946,55.2169311 167.747747,55.6084656 C167.351351,56 166.954954,56 166.756756,56 L163.387387,56 C162.990991,56 162.594594,55.8042328 162.396396,55.6084656 C162.198198,55.4126983 162,54.8253968 162,54.4338623 L162,20.7619048 C162,20.3703703 162.198198,19.978836 162.396396,19.5873015 C162.792793,19.1957672 163.189188,19.1957672 163.387387,19.1957672 L166.756756,19.1957672 C167.153153,19.1957672 167.54955,19.3915343 167.747747,19.5873015 C168.144144,19.978836 168.144144,20.3703703 168.144144,20.7619048 L168.144144,28.3968254 C168.738738,27.4179894 169.729729,26.4391534 170.720721,25.2645503 C171.90991,24.0899471 173.099099,23.1111111 174.288288,22.3280423 C175.675675,21.3492063 176.864865,20.5661375 178.45045,19.978836 C179.837838,19.3915343 181.225225,19 182.414415,19 C182.81081,19 183.207207,19.1957672 183.603603,19.3915343 C184,19.5873015 184,19.978836 184,20.5661375 L184,24.2857143 Z" id="Path" fill="#585858"></path>
                <path d="M223,57.1958763 L217.6,57.1958763 C217.6,57.1958763 216.200001,57.1958763 216,57.1958763 C215.6,56.9948453 215.2,56.5927836 214.8,56.1907216 L212.2,52.371134 C211.4,53.1752578 210.2,53.7783505 209.000001,54.5824742 C207.8,55.185567 206.6,55.7886599 205.400001,56.3917526 C204.2,56.9948453 203,57.3969073 201.800001,57.5979382 C200.6,57.798969 199.6,58 198.8,58 C197.2,58 195.600001,57.798969 194.4,57.3969073 C192.999999,56.9948453 191.8,56.3917526 191,55.5876289 C190,54.7835052 189.399999,53.5773196 188.8,52.1701031 C188.2,50.7628866 188,49.1546392 188,47.1443299 C188,46.7422681 188,46.1391752 188.2,45.3350515 C188.2,44.5309278 188.400001,43.9278351 188.8,43.1237114 C190.6,41.7164948 192.4,40.5103093 194.4,39.3041237 C196.4,38.298969 198.399999,37.2938144 200.4,36.6907216 C202.4,35.8865979 204.4,35.484536 206.2,34.8814433 C208,34.4793814 209.8,34.0773196 211.2,33.8762886 L211.2,28.0463918 C211.2,26.4381442 211,25.4329897 210.4,25.0309278 C209.8,24.6288659 209.000001,24.4278351 207.6,24.4278351 C207,24.4278351 206,24.6288659 204.8,24.8298969 C203.600001,25.0309278 202.2,25.4329897 201.000001,25.8350515 C199.6,26.2371134 198.2,26.6391752 197,27.2422679 C195.600001,27.6443299 194.6,28.0463918 193.6,28.4484536 C192.8,28.8505155 192.2,28.8505155 191.6,28.6494845 C191.199999,28.4484536 190.8,28.2474226 190.8,27.8453608 L190.200001,25.2319588 C190,24.6288659 190.200001,24.2268041 190.4,23.8247422 C190.6,23.6237114 191,23.4226804 191.6,23.2216495 C192.999999,22.6185567 194.6,22.0154638 196.2,21.6134021 C197.8,21.0103092 199.4,20.6082474 201.000001,20.2061855 C202.6,19.8041237 204,19.6030927 205.400001,19.4020618 C206.8,19.2010308 208.199999,19 209.199999,19 C212.2,19 214.400001,19.6030927 215.6,20.6082474 C217,21.6134021 217.6,23.6237114 217.6,26.4381442 L217.6,48.5515464 L223,57.1958763 Z M211.4,47.9484536 C211.2,47.5463918 211,46.943299 211,46.5412371 C211,46.1391752 211,45.7371134 211,45.1340207 L211,40.9123711 C211,40.7113401 211,40.3092784 211,39.7061856 C211,39.1030927 211.2,38.701031 211.4,38.298969 C210.6,38.5 209.199999,38.701031 207.6,39.1030927 C206,39.5051547 204.4,40.1082474 202.6,40.9123711 C200.8,41.515464 199.4,42.3195877 197.8,42.9226804 C196.2,43.5257732 195.4,44.3298969 194.799999,44.9329897 C194.6,45.3350515 194.6,45.7371134 194.6,46.1391752 C194.6,46.5412371 194.6,46.943299 194.6,47.1443299 C194.6,48.7525773 195,49.9587629 196,50.9639175 C196.8,51.9690722 198.399999,52.5721649 200.4,52.5721649 C200.8,52.5721649 201.6,52.371134 202.6,52.1701031 C203.600001,51.7680412 204.599999,51.3659795 205.8,50.9639175 C207,50.5618556 208,49.9587629 209.000001,49.3556701 C209.8,48.9536082 210.800001,48.3505155 211.4,47.9484536 Z" id="Shape" fill="#585858" fill-rule="nonzero"></path>
                <path d="M150.6,48.7525773 L150.6,20.6082474 C150.6,20.2061855 150.400001,19.8041237 150.200001,19.4020618 C149.8,19 149.6,19 149.2,19 L145.800001,19.4020618 C145.4,19.4020618 145.000001,19.6030927 144.6,20.0051547 C144.4,20.4072164 144.000001,20.8092784 144.000001,21.2113401 L144.000001,47.1443299 C143.6,47.7474227 142.200001,48.3505155 141,49.1546392 C139.8,49.9587629 138.4,50.3608248 137.2,50.9639175 C135.8,51.5670103 134.6,51.9690722 133.200001,52.371134 C131.8,52.7731959 130.8,52.9742268 129.8,52.9742268 C128.8,52.9742268 128,52.7731959 127.6,52.1701031 C127.2,51.5670103 126.8,50.7628866 126.8,49.3556701 L126.8,20.6082474 C126.8,20.2061855 126.6,19.8041237 126.4,19.4020618 C126,19 125.6,19 125.2,19 L121.8,19.4020618 C121.4,19.4020618 121,19.6030927 120.6,20.0051547 C120.4,20.4072164 120,20.8092784 120,21.2113401 L120,53.9793815 C121,55.3865979 121.8,56.5927836 123.2,57.1958763 C124.6,57.798969 126.2,58 127.8,58 C129.2,58 130.6,57.798969 132.2,57.5979382 C133.8,57.3969073 135.2,56.7938145 136.800001,56.3917526 C138.2,55.7886599 139.8,55.185567 141.200001,54.5824742 C142.6,53.9793815 143.8,53.1752578 145.000001,52.371134 L147.8,56.1907216 C148.2,56.5927836 148.600001,56.9948453 149,57.1958763 C149.2,57.1958763 150.8,57.1958763 150.8,57.1958763 L156,57.1958763 L150.6,48.7525773 Z" id="Path" fill="#585858"></path>
                <g id="Group">
                    <polygon id="Path" fill="#FFFFFF" points="32.3410825 0.198810237 0 19.0857827 0 56.8597277 32.3410825 75.7467003 49.3004307 65.8061884 56.202491 61.8299836 64.682165 56.8597277 64.682165 19.0857827"></polygon>
                    <polygon id="Path" fill="#80D8FF" points="32.3410825 0.198810237 0 19.0857827 0 56.8597277 8.47967407 61.8299836 8.47967407 24.0560387 32.3410825 10.1393221 56.202491 24.0560387 56.202491 32.0084481 49.3004307 28.0322433 32.3410825 18.0917316 15.3817344 28.0322433 15.3817344 37.9727552 27.8054429 44.7323033 15.3817344 44.7323033 15.3817344 65.8061884 32.3410825 75.7467003 49.3004307 65.8061884 56.202491 61.8299836 64.682165 56.8597277 64.682165 19.0857827"></polygon>
                    <polygon id="Path" fill="#80D8FF" points="0 56.8597277 8.47967407 61.8299836 8.47967407 24.0560387 0 19.0857827"></polygon>
                    <polygon id="Path" fill="#40C4FF" points="32.3410825 10.1393221 32.3410825 0.198810237 0 19.0857827 8.47967407 24.0560387 8.47967407 24.0560387"></polygon>
                    <polygon id="Path" fill="#0091EA" points="56.202491 24.0560387 56.202491 61.8299836 64.682165 56.8597277 64.682165 19.0857827"></polygon>
                    <polygon id="Path" fill="#00B0FF" points="56.202491 24.0560387 56.202491 24.0560387 64.682165 19.0857827 32.3410825 0.198810237 32.3410825 10.1393221"></polygon>
                    <polygon id="Path" fill="#80D8FF" points="15.3817344 28.0322433 15.3817344 37.9727552 32.3410825 37.9727552"></polygon>
                    <polygon id="Path" fill="#40C4FF" points="15.3817344 28.0322433 32.3410825 37.9727552 32.3410825 18.0917316"></polygon>
                    <polygon id="Path" fill="#0091EA" points="49.3004307 28.0322433 32.3410825 37.9727552 49.3004307 37.9727552"></polygon>
                    <polygon id="Path" fill="#00B0FF" points="32.3410825 18.0917316 32.3410825 37.9727552 49.3004307 28.0322433"></polygon>
                    <polygon id="Path" fill="#80D8FF" points="15.3817344 44.7323033 15.3817344 65.8061884 32.3410825 75.7467003 32.3410825 44.7323033"></polygon>
                    <polygon id="Path" fill="#0091EA" points="49.3004307 44.7323033 32.3410825 44.7323033 32.3410825 75.7467003 49.3004307 65.8061884"></polygon>
                    <polygon id="Path" fill="#E0E0E0" points="49.3004307 28.0322433 49.3004307 37.9727552 15.3817344 37.9727552 27.8054429 44.7323033 49.3004307 44.7323033 49.3004307 65.8061884 56.202491 61.8299836 56.202491 32.0084481"></polygon>
                </g>
                <polygon id="Path" fill="#80D8FF" points="15 45 15 66.0641025 33 76 33 45"></polygon>
                <polygon id="Path" fill="#E0E0E0" points="49.0676328 28 49.0676328 38 15 38 27.4782608 44.8000001 49.0676328 44.8000001 49.0676328 66 56 61.9999999 56 32.0000001"></polygon>
                <polygon id="Path" fill="#0091EA" points="50 45 32 45 32 76 50 66.0641025"></polygon>
                <polygon id="Path" fill="#0091EA" points="57 24.0000001 57 62 65 57.0000001 65 19"></polygon>
                <polygon id="Path" fill="#0091EA" points="50 28 32 38 50 38"></polygon>
                <polygon id="Path" fill="#80D8FF" points="15 28 15 38 33 38"></polygon>
                <polygon id="Path" fill="#40C4FF" points="15 27.9999999 33 38 33 18"></polygon>
                <polygon id="Path" fill="#00B0FF" points="32 18 32 38 50 27.9999999"></polygon>
                <polygon id="Path" fill="#00B0FF" points="56.347561 25 56.347561 25 65 19.9999999 32 1 32 11"></polygon>
                <polygon id="Path" fill="#40C4FF" points="33 11 33 1 0 19.9999999 8.65243902 25 8.65243902 25"></polygon>
                <polygon id="Path" fill="#80D8FF" points="0 57.0000001 8 62 8 24.0000001 0 19"></polygon>
            </g>
        </g>
    </g>
</svg>